<?xml version="1.0" encoding="UTF-8" standalone="no"?>
<!-- Created with Inkscape (http://www.inkscape.org/) -->

<svg
   xmlns:dc="http://purl.org/dc/elements/1.1/"
   xmlns:cc="http://creativecommons.org/ns#"
   xmlns:rdf="http://www.w3.org/1999/02/22-rdf-syntax-ns#"
   xmlns:svg="http://www.w3.org/2000/svg"
   xmlns="http://www.w3.org/2000/svg"
   version="1.1"
   width="892.91339"
   height="175.03937"
   id="svg4741">
  <defs
     id="defs4743" />
  <metadata
     id="metadata4746">
    <rdf:RDF>
      <cc:Work
         rdf:about="">
        <dc:format>image/svg+xml</dc:format>
        <dc:type
           rdf:resource="http://purl.org/dc/dcmitype/StillImage" />
        <dc:title></dc:title>
      </cc:Work>
    </rdf:RDF>
  </metadata>
  <g
     transform="translate(53.668301,-389.38053)"
     id="layer1">
    <g
       transform="matrix(4.7285298,0,0,4.7285298,-377.28645,-1513.4969)"
       id="g4780">
      <g
         transform="matrix(1.25,0,0,-1.25,92.233833,434.62424)"
         id="g4486">
        <path
           d="m 0,0 -0.067,0.069 c -1.769,-2.348 -4.457,-3.334 -7.348,-3.334 -9.49,0 -11.021,8.061 -11.021,11.461 0,8.504 4.864,16.974 15.511,16.974 6.089,0 11.191,-3.06 11.26,-10.136 l -7.927,0 c -0.203,2.517 -1.7,3.367 -3.81,3.367 -4.626,0 -6.666,-4.898 -6.666,-9.558 0,-3.197 1.361,-5.339 4.762,-5.339 2.245,0 4.116,0.817 4.966,2.992 l -3.81,0 1.225,5.817 11.124,0 -3.129,-14.932 -5.307,0 L 0,0"
           id="path4488"
           style="fill:#008fd0;fill-opacity:1;fill-rule:evenodd;stroke:none" />
      </g>
      <g
         transform="matrix(1.25,0,0,-1.25,126.4737,429.30912)"
         id="g4490">
        <path
           d="m 0,0 c -1.088,-5.102 -4.83,-7.347 -9.932,-7.347 -6.054,0 -8.572,2.959 -8.572,6.192 0,0.373 0.136,1.189 0.204,1.631 l 2.687,12.892 6.259,0 -2.312,-11.056 c -0.136,-0.611 -0.306,-1.631 -0.306,-1.938 0,-0.646 -0.171,-2.686 2.346,-2.686 2.586,0 3.368,2.346 3.844,4.556 l 2.313,11.124 6.225,0 L 0,0"
           id="path4492"
           style="fill:#008fd0;fill-opacity:1;fill-rule:evenodd;stroke:none" />
      </g>
      <g
         transform="matrix(1.25,0,0,-1.25,133.17633,412.59974)"
         id="g4494">
        <path
           d="m 0,0 6.191,0 3.81,-11.055 0.034,0 2.279,11.055 5.918,0 -4.252,-20.239 -6.122,0 -3.708,11.327 -0.068,0 -2.347,-11.327 -5.919,0 L 0,0 z"
           id="path4496"
           style="fill:#008fd0;fill-opacity:1;fill-rule:evenodd;stroke:none" />
      </g>
      <g
         transform="matrix(1.25,0,0,-1.25,159.1332,412.59974)"
         id="g4498">
        <path
           d="m 0,0 6.129,0 3.81,-11.055 0.068,0 2.244,11.055 5.954,0 -4.252,-20.239 -6.123,0 -3.741,11.327 -0.036,0 -2.315,-11.327 -5.956,0 L 0,0 z"
           id="path4500"
           style="fill:#008fd0;fill-opacity:1;fill-rule:evenodd;stroke:none" />
      </g>
      <path
         d="m 185.1387,412.59974 20.9425,0 -1.295,6.1525 -13.12625,-0.0112 -0.7825,3.725 12.98375,-0.007 -1.06375,5.03 -12.9725,-0.006 -0.88625,4.17125 13.13625,-0.007 -1.30875,6.2525 -20.94125,0 5.31375,-25.29875 z"
         id="path4504"
         style="fill:#008fd0;fill-opacity:1;fill-rule:evenodd;stroke:none" />
      <g
         transform="matrix(1.25,0,0,-1.25,214.75358,422.46512)"
         id="g4506">
        <path
           d="M 0,0 3.538,0 C 4.525,0 5.75,0.374 5.75,1.634 5.75,2.857 4.933,3.061 3.844,3.061 l -3.197,0 L 0,0 z m -1.565,-7.516 4.015,0 c 1.088,0 2.619,0.375 2.619,2.041 0,1.497 -1.089,1.734 -2.381,1.734 l -3.435,0 -0.818,-3.775 z m -2.89,15.408 10.408,0 c 4.389,0 6.055,-1.531 6.055,-4.456 0,-2.551 -1.292,-4.218 -3.707,-4.864 l -0.034,0 0,-0.069 c 1.87,-0.374 3.061,-2.176 3.061,-4.046 0,-4.864 -3.912,-6.803 -8.334,-6.803 l -11.634,0 4.185,20.238"
           id="path4508"
           style="fill:#008fd0;fill-opacity:1;fill-rule:evenodd;stroke:none" />
      </g>
      <g
         transform="matrix(1.25,0,0,-1.25,242.5367,432.19925)"
         id="g4510">
        <path
           d="m 0,0 c 3.742,0 4.965,4.42 4.965,7.447 0,1.837 -0.713,3.674 -3.128,3.674 -3.743,0 -4.967,-4.422 -4.967,-7.415 C -3.13,1.836 -2.416,0 0,0 m 2.007,16.155 c 5.714,0 9.184,-2.687 9.184,-8.877 0,-6.803 -4.456,-12.313 -11.362,-12.313 -5.714,0 -9.183,3.027 -9.183,8.878 0,6.802 4.456,12.312 11.361,12.312"
           id="path4512"
           style="fill:#008fd0;fill-opacity:1;fill-rule:evenodd;stroke:none" />
      </g>
    </g>
  </g>
</svg>
