<?xml version="1.0" encoding="UTF-8"?>
<!DOCTYPE svg PUBLIC "-//W3C//DTD SVG 1.1//EN" "http://www.w3.org/Graphics/SVG/1.1/DTD/svg11.dtd">
<!-- Creator: CorelDRAW -->
<svg xmlns="http://www.w3.org/2000/svg" xml:space="preserve" width="71mm" height="31mm" version="1.1" style="shape-rendering:geometricPrecision; text-rendering:geometricPrecision; image-rendering:optimizeQuality; fill-rule:evenodd; clip-rule:evenodd"
viewBox="0 0 7100 3100"
 xmlns:xlink="http://www.w3.org/1999/xlink"
 xmlns:xodm="http://www.corel.com/coreldraw/odm/2003">
 <defs>
  <style type="text/css">
   <![CDATA[
    .fil0 {fill:none}
    .fil3 {fill:#E31E24}
    .fil1 {fill:black;fill-rule:nonzero}
    .fil2 {fill:#9D9E9E;fill-rule:nonzero}
   ]]>
  </style>
 </defs>
 <g id="Layer_x0020_1">
  <metadata id="CorelCorpID_0Corel-Layer"/>
  <polygon class="fil0" points="-6,7.87 7094,7.87 7094,3107.87 -6,3107.87 "/>
  <g id="_1979836470096">
   <path class="fil1" d="M2712.36 2485.58l252.07 0 175.92 -569.84 173.38 569.84 244.8 0 -289.87 -791.73 -261.34 0 -294.96 791.73zm-783.18 -791.73l240.98 0 0 276.44 263.89 0 0 -276.44 242.07 0 0 791.73 -242.07 0 0 -320.67 -263.89 0 0 320.67 -240.98 0 0 -791.73zm-877.87 791.73l252.07 0 175.92 -569.84 173.38 569.84 244.8 0 -289.87 -791.73 -261.34 0 -294.96 791.73zm-907.3 -791.73l318.21 0 121.23 481.75 121.58 -481.75 316.77 0 0 791.73 -197.37 0 0 -603.56 -152.3 603.56 -178.83 0 -151.93 -603.56 0 603.56 -197.36 0 0 -791.73z"/>
   <path class="fil2" d="M3772.57 2499.07l-201.4 -806.7 123.17 0 142.96 597.14 137.2 -597.14 121.07 0 -200.22 806.7 -122.78 0zm376.46 0l0 -806.7 114 0 0 806.7 -114 0zm348.95 0l0 -670.37 -166.68 0 0 -136.33 446.57 0 0 136.33 -165.89 0 0 670.37 -114 0zm802.45 0l-122.78 0 -48.61 -183.65 -225.77 0 -46.78 183.65 -120.55 0 218.56 -806.7 120.42 0 225.51 806.7zm-208.34 -319.98l-78.23 -298.57 -76 298.57 154.23 0zm269.01 319.98l0 -806.7 239.4 0c60.15,0 103.91,7.32 131.16,21.78 27.39,14.46 49.14,40.19 65.52,77.18 16.38,37.18 24.64,79.43 24.64,127.13 0,60.65 -12.32,110.6 -37.09,150.03 -24.76,39.44 -61.71,64.22 -110.98,74.55 24.5,20.47 44.68,43 60.54,67.6 15.98,24.6 37.47,68.35 64.46,131.07l68.67 157.36 -135.88 0 -81.51 -176.14c-29.22,-62.53 -49.27,-101.96 -60.15,-118.3 -10.74,-16.15 -22.14,-27.41 -34.19,-33.42 -12.19,-6.01 -31.32,-9.02 -57.53,-9.02l-23.06 0 0 336.88 -114 0zm114 -465.32l84.13 0c54.51,0 88.44,-3.38 102.07,-9.95 13.5,-6.57 24.24,-18.03 31.84,-34.18 7.73,-16.15 11.53,-36.43 11.53,-60.65 0,-27.23 -5.11,-49.01 -15.2,-65.91 -10.09,-16.71 -24.37,-27.23 -42.72,-31.55 -9.3,-1.88 -36.95,-2.81 -82.94,-2.81l-88.71 0 0 205.05zm960.87 465.32l-122.77 0 -48.62 -183.65 -225.77 0 -46.78 183.65 -120.55 0 218.57 -806.7 120.41 0 225.51 806.7zm-208.34 -319.98l-78.23 -298.57 -76 298.57 154.23 0zm269.01 319.98l0 -806.7 110.34 0 231.66 540.62 0 -540.62 105.35 0 0 806.7 -113.86 0 -228.14 -530.29 0 530.29 -105.35 0z"/>
   <g>
    <path class="fil1" d="M147.56 2947.81l0 -270.94 44.51 0 53.08 191.79c4.91,17.85 8.47,31.22 10.72,40.12 2.55,-9.84 6.58,-24.35 12.01,-43.46l54.02 -188.45 39.76 0 0 270.94 -28.52 0 0 -226.66 -65.52 226.66 -26.75 0 -64.79 -230.82 0 230.82 -28.52 0zm364.57 -24.59c-10.24,10.53 -20.11,17.91 -29.57,22.26 -9.45,4.35 -19.59,6.5 -30.46,6.5 -17.87,0 -31.61,-5.24 -41.22,-15.77 -9.61,-10.47 -14.42,-23.9 -14.42,-40.24 0,-9.58 1.83,-18.35 5.43,-26.3 3.66,-7.94 8.42,-14.25 14.27,-19.04 5.9,-4.8 12.49,-8.45 19.85,-10.91 5.44,-1.71 13.64,-3.35 24.56,-4.99 22.25,-3.15 38.71,-7 49.21,-11.41 0.11,-4.54 0.16,-7.44 0.16,-8.64 0,-13.5 -2.61,-23.02 -7.84,-28.57 -7.05,-7.51 -17.55,-11.23 -31.45,-11.23 -13.01,0 -22.62,2.78 -28.79,8.26 -6.21,5.49 -10.76,15.2 -13.74,29.2l-26.96 -4.54c2.46,-13.94 6.48,-25.22 12.12,-33.8 5.64,-8.58 13.8,-15.14 24.45,-19.8 10.61,-4.61 22.99,-6.94 36.99,-6.94 13.9,0 25.24,1.95 33.97,5.93 8.67,3.97 15.1,8.89 19.17,14.88 4.08,5.99 6.95,13.56 8.62,22.71 0.89,5.67 1.36,15.89 1.36,30.58l0 44.15c0,30.84 0.57,50.33 1.73,58.59 1.09,8.26 3.39,16.15 6.73,23.71l-28.84 0c-2.77,-7 -4.54,-15.2 -5.33,-24.59zm-2.19 -73.79c-10.03,4.92 -25.08,9.08 -45.14,12.48 -11.39,1.96 -19.44,4.17 -24.14,6.63 -4.7,2.46 -8.3,6.05 -10.87,10.72 -2.56,4.73 -3.86,9.96 -3.86,15.77 0,8.76 2.77,16.14 8.36,22.01 5.59,5.86 13.74,8.83 24.45,8.83 10.6,0 20.06,-2.78 28.37,-8.39 8.25,-5.55 14.37,-13.18 18.23,-22.83 2.98,-7.51 4.44,-18.55 4.44,-33.11l0.16 -12.11zm70.27 98.38l0 -270.94 27.59 0 0 97.51c12.8,-18.1 28.94,-27.12 48.48,-27.12 11.97,0 22.36,2.84 31.25,8.58 8.83,5.74 15.15,13.62 18.96,23.71 3.81,10.09 5.7,24.79 5.7,43.96l0 124.3 -27.59 0 0 -124.18c0,-16.58 -2.98,-28.69 -8.88,-36.26 -5.96,-7.57 -14.32,-11.35 -25.18,-11.35 -8.1,0 -15.73,2.52 -22.89,7.63 -7.16,5.11 -12.22,12.05 -15.31,20.81 -3.03,8.7 -4.54,20.75 -4.54,36.14l0 107.21 -27.59 0zm280.62 -24.59c-10.24,10.53 -20.12,17.91 -29.57,22.26 -9.46,4.35 -19.59,6.5 -30.46,6.5 -17.87,0 -31.61,-5.24 -41.23,-15.77 -9.61,-10.47 -14.41,-23.9 -14.41,-40.24 0,-9.58 1.82,-18.35 5.43,-26.3 3.65,-7.94 8.41,-14.25 14.26,-19.04 5.9,-4.8 12.49,-8.45 19.85,-10.91 5.44,-1.71 13.64,-3.35 24.56,-4.99 22.26,-3.15 38.71,-7 49.22,-11.41 0.1,-4.54 0.15,-7.44 0.15,-8.64 0,-13.5 -2.61,-23.02 -7.83,-28.57 -7.06,-7.51 -17.56,-11.23 -31.46,-11.23 -13,0 -22.62,2.78 -28.78,8.26 -6.22,5.49 -10.77,15.2 -13.74,29.2l-26.96 -4.54c2.45,-13.94 6.48,-25.22 12.12,-33.8 5.64,-8.58 13.79,-15.14 24.45,-19.8 10.61,-4.61 22.99,-6.94 36.99,-6.94 13.9,0 25.24,1.95 33.96,5.93 8.67,3.97 15.1,8.89 19.17,14.88 4.08,5.99 6.95,13.56 8.62,22.71 0.89,5.67 1.36,15.89 1.36,30.58l0 44.15c0,30.84 0.58,50.33 1.73,58.59 1.09,8.26 3.39,16.15 6.74,23.71l-28.84 0c-2.77,-7 -4.55,-15.2 -5.33,-24.59zm-2.2 -73.79c-10.03,4.92 -25.08,9.08 -45.14,12.48 -11.39,1.96 -19.43,4.17 -24.14,6.63 -4.7,2.46 -8.3,6.05 -10.86,10.72 -2.56,4.73 -3.87,9.96 -3.87,15.77 0,8.76 2.77,16.14 8.36,22.01 5.59,5.86 13.74,8.83 24.45,8.83 10.61,0 20.06,-2.78 28.37,-8.39 8.26,-5.55 14.37,-13.18 18.24,-22.83 2.97,-7.51 4.44,-18.55 4.44,-33.11l0.15 -12.11zm69.96 98.38l0 -196.39 24.77 0 0 30.08c6.32,-13.93 12.17,-23.14 17.55,-27.56 5.38,-4.48 11.29,-6.68 17.71,-6.68 9.3,0 18.76,3.53 28.37,10.53l-9.82 30.71c-6.69,-4.54 -13.38,-6.81 -20.06,-6.81 -6.01,0 -11.39,2.21 -16.15,6.56 -4.75,4.35 -8.15,10.41 -10.18,18.17 -3.09,11.79 -4.6,24.72 -4.6,38.78l0 102.61 -27.59 0zm210.97 -24.59c-10.24,10.53 -20.11,17.91 -29.57,22.26 -9.45,4.35 -19.59,6.5 -30.46,6.5 -17.86,0 -31.61,-5.24 -41.22,-15.77 -9.61,-10.47 -14.42,-23.9 -14.42,-40.24 0,-9.58 1.83,-18.35 5.43,-26.3 3.66,-7.94 8.42,-14.25 14.27,-19.04 5.9,-4.8 12.49,-8.45 19.85,-10.91 5.44,-1.71 13.64,-3.35 24.56,-4.99 22.25,-3.15 38.71,-7 49.21,-11.41 0.11,-4.54 0.16,-7.44 0.16,-8.64 0,-13.5 -2.61,-23.02 -7.84,-28.57 -7.05,-7.51 -17.55,-11.23 -31.45,-11.23 -13.01,0 -22.62,2.78 -28.79,8.26 -6.21,5.49 -10.76,15.2 -13.74,29.2l-26.96 -4.54c2.46,-13.94 6.48,-25.22 12.12,-33.8 5.65,-8.58 13.8,-15.14 24.46,-19.8 10.6,-4.61 22.98,-6.94 36.98,-6.94 13.9,0 25.24,1.95 33.97,5.93 8.67,3.97 15.09,8.89 19.17,14.88 4.08,5.99 6.95,13.56 8.62,22.71 0.89,5.67 1.36,15.89 1.36,30.58l0 44.15c0,30.84 0.57,50.33 1.72,58.59 1.1,8.26 3.4,16.15 6.75,23.71l-28.85 0c-2.77,-7 -4.54,-15.2 -5.33,-24.59zm-2.19 -73.79c-10.03,4.92 -25.08,9.08 -45.14,12.48 -11.39,1.96 -19.44,4.17 -24.14,6.63 -4.7,2.46 -8.31,6.05 -10.87,10.72 -2.56,4.73 -3.86,9.96 -3.86,15.77 0,8.76 2.77,16.14 8.35,22.01 5.6,5.86 13.75,8.83 24.46,8.83 10.61,0 20.06,-2.78 28.37,-8.39 8.25,-5.55 14.37,-13.18 18.23,-22.83 2.98,-7.51 4.44,-18.55 4.44,-33.11l0.16 -12.11zm59.3 39.73l27.27 -5.3c1.52,13.18 5.8,23.28 12.8,30.34 7.01,7 16.83,10.53 29.37,10.53 12.69,0 22.1,-3.09 28.26,-9.33 6.11,-6.18 9.2,-13.5 9.2,-21.89 0,-7.5 -2.77,-13.43 -8.26,-17.72 -3.87,-2.97 -13.27,-6.69 -28.21,-11.29 -20.17,-6.12 -34.12,-11.41 -41.96,-15.89 -7.78,-4.54 -13.68,-10.72 -17.71,-18.67 -4.02,-7.88 -6.06,-16.65 -6.06,-26.24 0,-8.76 1.67,-16.84 4.96,-24.28 3.35,-7.44 7.84,-13.62 13.54,-18.54 4.28,-3.78 10.13,-7 17.5,-9.65 7.42,-2.65 15.31,-3.97 23.77,-3.97 12.75,0 23.93,2.2 33.54,6.68 9.67,4.42 16.77,10.47 21.37,18.04 4.55,7.63 7.74,17.79 9.46,30.52l-26.96 4.55c-1.2,-10.22 -4.75,-18.23 -10.61,-23.97 -5.85,-5.74 -14.1,-8.58 -24.81,-8.58 -12.59,0 -21.63,2.53 -27.02,7.57 -5.38,5.05 -8.09,10.98 -8.09,17.72 0,4.29 1.09,8.2 3.34,11.67 2.25,3.53 5.75,6.5 10.55,8.83 2.77,1.26 10.82,4.1 24.3,8.51 19.44,6.25 33.02,11.42 40.75,15.39 7.73,3.98 13.8,9.84 18.18,17.41 4.44,7.63 6.64,17.09 6.64,28.44 0,11.04 -2.66,21.45 -8.05,31.22 -5.38,9.78 -13.11,17.35 -23.19,22.71 -10.14,5.36 -21.58,8.01 -34.33,8.01 -21.11,0 -37.25,-5.3 -48.33,-15.83 -11.07,-10.6 -18.13,-26.24 -21.21,-46.99zm167.71 58.65l0 -270.94 27.59 0 0 97.51c12.8,-18.1 28.94,-27.12 48.48,-27.12 11.97,0 22.36,2.84 31.25,8.58 8.83,5.74 15.15,13.62 18.96,23.71 3.81,10.09 5.7,24.79 5.7,43.96l0 124.3 -27.59 0 0 -124.18c0,-16.58 -2.98,-28.69 -8.88,-36.26 -5.96,-7.57 -14.32,-11.35 -25.18,-11.35 -8.11,0 -15.73,2.52 -22.89,7.63 -7.16,5.11 -12.22,12.05 -15.31,20.81 -3.03,8.7 -4.54,20.75 -4.54,36.14l0 107.21 -27.59 0zm234.22 -29.7l3.77 29.39c-7.74,1.95 -14.69,2.96 -20.75,2.96 -9.98,0 -17.71,-1.89 -23.25,-5.74 -5.48,-3.84 -9.35,-8.83 -11.6,-15.07 -2.24,-6.24 -3.34,-19.36 -3.34,-39.35l0 -113.15 -20.38 0 0 -25.73 20.38 0 0 -48.56 27.59 -19.99 0 68.55 27.58 0 0 25.73 -27.58 0 0 115.04c0,9.52 0.47,15.64 1.46,18.35 0.94,2.71 2.51,4.86 4.7,6.5 2.2,1.57 5.33,2.39 9.41,2.39 3.03,0 7.05,-0.44 12.01,-1.32zm26.91 29.7l0 -196.39 24.76 0 0 30.08c6.33,-13.93 12.18,-23.14 17.56,-27.56 5.38,-4.48 11.29,-6.68 17.71,-6.68 9.3,0 18.76,3.53 28.37,10.53l-9.82 30.71c-6.69,-4.54 -13.38,-6.81 -20.06,-6.81 -6.01,0 -11.4,2.21 -16.15,6.56 -4.75,4.35 -8.15,10.41 -10.19,18.17 -3.08,11.79 -4.59,24.72 -4.59,38.78l0 102.61 -27.59 0zm210.97 -24.59c-10.24,10.53 -20.11,17.91 -29.57,22.26 -9.45,4.35 -19.59,6.5 -30.46,6.5 -17.87,0 -31.61,-5.24 -41.22,-15.77 -9.61,-10.47 -14.42,-23.9 -14.42,-40.24 0,-9.58 1.83,-18.35 5.43,-26.3 3.66,-7.94 8.42,-14.25 14.27,-19.04 5.9,-4.8 12.48,-8.45 19.85,-10.91 5.43,-1.71 13.64,-3.35 24.55,-4.99 22.26,-3.15 38.72,-7 49.22,-11.41 0.1,-4.54 0.16,-7.44 0.16,-8.64 0,-13.5 -2.61,-23.02 -7.84,-28.57 -7.05,-7.51 -17.55,-11.23 -31.45,-11.23 -13.01,0 -22.62,2.78 -28.79,8.26 -6.22,5.49 -10.76,15.2 -13.74,29.2l-26.96 -4.54c2.46,-13.94 6.48,-25.22 12.12,-33.8 5.64,-8.58 13.79,-15.14 24.45,-19.8 10.61,-4.61 22.99,-6.94 36.99,-6.94 13.9,0 25.24,1.95 33.96,5.93 8.68,3.97 15.1,8.89 19.18,14.88 4.08,5.99 6.95,13.56 8.62,22.71 0.89,5.67 1.36,15.89 1.36,30.58l0 44.15c0,30.84 0.57,50.33 1.72,58.59 1.1,8.26 3.4,16.15 6.74,23.71l-28.84 0c-2.77,-7 -4.54,-15.2 -5.33,-24.59zm-2.19 -73.79c-10.03,4.92 -25.08,9.08 -45.14,12.48 -11.39,1.96 -19.44,4.17 -24.14,6.63 -4.7,2.46 -8.31,6.05 -10.87,10.72 -2.56,4.73 -3.86,9.96 -3.86,15.77 0,8.76 2.76,16.14 8.35,22.01 5.59,5.86 13.75,8.83 24.46,8.83 10.6,0 20.06,-2.78 28.37,-8.39 8.25,-5.55 14.36,-13.18 18.23,-22.83 2.98,-7.51 4.44,-18.55 4.44,-33.11l0.16 -12.11zm151.1 11.35l27.9 -3.03c1.3,13.63 4.38,24.79 9.24,33.56 4.86,8.7 12.39,15.76 22.57,21.19 10.19,5.36 21.69,8.07 34.44,8.07 11.33,0 21.31,-2.02 29.98,-6.12 8.68,-4.1 15.1,-9.71 19.34,-16.84 4.23,-7.13 6.37,-14.88 6.37,-23.21 0,-8.45 -2.04,-15.83 -6.11,-22.2 -4.08,-6.3 -10.82,-11.6 -20.22,-15.95 -6.01,-2.78 -19.33,-7.19 -39.97,-13.19 -20.64,-5.99 -35.06,-11.6 -43.31,-16.9 -10.71,-6.81 -18.66,-15.26 -23.88,-25.29 -5.28,-10.02 -7.89,-21.31 -7.89,-33.74 0,-13.75 3.24,-26.55 9.67,-38.41 6.42,-11.92 15.77,-20.94 28.16,-27.11 12.33,-6.19 26.07,-9.28 41.17,-9.28 16.61,0 31.29,3.22 43.99,9.72 12.69,6.43 22.46,15.95 29.31,28.56 6.84,12.56 10.5,26.81 11.02,42.7l-28.53 2.65c-1.51,-17.09 -6.68,-30.02 -15.51,-38.72 -8.83,-8.77 -21.89,-13.12 -39.13,-13.12 -17.98,0 -31.09,3.97 -39.29,11.92 -8.21,7.95 -12.33,17.53 -12.33,28.76 0,9.71 2.92,17.72 8.72,24.03 5.75,6.24 20.64,12.74 44.78,19.3 24.13,6.62 40.7,12.36 49.68,17.28 13.01,7.25 22.68,16.39 28.9,27.56 6.21,11.1 9.3,23.9 9.3,38.41 0,14.44 -3.4,27.93 -10.25,40.67 -6.84,12.74 -16.61,22.65 -29.41,29.71 -12.8,7.06 -27.17,10.59 -43.21,10.59 -20.27,0 -37.25,-3.59 -50.94,-10.72 -13.74,-7.12 -24.45,-17.84 -32.24,-32.22 -7.83,-14.32 -11.91,-30.53 -12.32,-48.63zm275.23 57.33l3.76 29.39c-7.73,1.95 -14.68,2.96 -20.74,2.96 -9.98,0 -17.71,-1.89 -23.25,-5.74 -5.49,-3.84 -9.35,-8.83 -11.6,-15.07 -2.25,-6.24 -3.34,-19.36 -3.34,-39.35l0 -113.15 -20.38 0 0 -25.73 20.38 0 0 -48.56 27.58 -19.99 0 68.55 27.59 0 0 25.73 -27.59 0 0 115.04c0,9.52 0.47,15.64 1.47,18.35 0.94,2.71 2.5,4.86 4.7,6.5 2.19,1.57 5.33,2.39 9.4,2.39 3.03,0 7.06,-0.44 12.02,-1.32zm133.49 5.11c-10.24,10.53 -20.11,17.91 -29.57,22.26 -9.46,4.35 -19.59,6.5 -30.46,6.5 -17.87,0 -31.61,-5.24 -41.22,-15.77 -9.62,-10.47 -14.42,-23.9 -14.42,-40.24 0,-9.58 1.83,-18.35 5.43,-26.3 3.66,-7.94 8.41,-14.25 14.26,-19.04 5.91,-4.8 12.49,-8.45 19.86,-10.91 5.43,-1.71 13.63,-3.35 24.55,-4.99 22.26,-3.15 38.72,-7 49.22,-11.41 0.1,-4.54 0.16,-7.44 0.16,-8.64 0,-13.5 -2.62,-23.02 -7.84,-28.57 -7.05,-7.51 -17.56,-11.23 -31.45,-11.23 -13.01,0 -22.63,2.78 -28.79,8.26 -6.22,5.49 -10.76,15.2 -13.74,29.2l-26.96 -4.54c2.45,-13.94 6.48,-25.22 12.12,-33.8 5.64,-8.58 13.8,-15.14 24.45,-19.8 10.61,-4.61 22.99,-6.94 36.99,-6.94 13.9,0 25.24,1.95 33.96,5.93 8.68,3.97 15.1,8.89 19.18,14.88 4.07,5.99 6.95,13.56 8.62,22.71 0.88,5.67 1.35,15.89 1.35,30.58l0 44.15c0,30.84 0.58,50.33 1.73,58.59 1.1,8.26 3.4,16.15 6.74,23.71l-28.84 0c-2.77,-7 -4.55,-15.2 -5.33,-24.59zm-2.19 -73.79c-10.03,4.92 -25.08,9.08 -45.14,12.48 -11.39,1.96 -19.44,4.17 -24.14,6.63 -4.71,2.46 -8.31,6.05 -10.87,10.72 -2.56,4.73 -3.87,9.96 -3.87,15.77 0,8.76 2.77,16.14 8.36,22.01 5.59,5.86 13.74,8.83 24.45,8.83 10.61,0 20.07,-2.78 28.38,-8.39 8.25,-5.55 14.36,-13.18 18.23,-22.83 2.98,-7.51 4.44,-18.55 4.44,-33.11l0.16 -12.11zm130.14 68.68l3.76 29.39c-7.73,1.95 -14.68,2.96 -20.74,2.96 -9.98,0 -17.71,-1.89 -23.25,-5.74 -5.48,-3.84 -9.35,-8.83 -11.6,-15.07 -2.24,-6.24 -3.34,-19.36 -3.34,-39.35l0 -113.15 -20.38 0 0 -25.73 20.38 0 0 -48.56 27.59 -19.99 0 68.55 27.58 0 0 25.73 -27.58 0 0 115.04c0,9.52 0.47,15.64 1.46,18.35 0.94,2.71 2.51,4.86 4.7,6.5 2.2,1.57 5.33,2.39 9.4,2.39 3.03,0 7.06,-0.44 12.02,-1.32zm138.2 -33.87l28.52 4.54c-4.44,20 -12.75,35.57 -24.87,46.61 -12.12,11.04 -27.58,16.59 -46.45,16.59 -23.72,0 -42.52,-8.83 -56.42,-26.49 -13.9,-17.6 -20.85,-42.39 -20.85,-74.23 0,-32.92 7,-58.53 21.06,-76.69 14.05,-18.23 32.29,-27.31 54.7,-27.31 21.68,0 39.4,8.89 53.13,26.74 13.74,17.85 20.64,42.95 20.64,75.3 0,1.96 -0.05,4.92 -0.16,8.83l-121.16 0c1.05,21.51 6.07,38.03 15.16,49.45 9.03,11.41 20.37,17.15 33.9,17.15 10.09,0 18.71,-3.22 25.82,-9.65 7.15,-6.43 12.8,-16.71 16.98,-30.84zm-90.28 -53.35l90.59 0c-1.2,-16.53 -4.7,-28.89 -10.4,-37.15 -8.72,-12.81 -20.11,-19.24 -34.06,-19.24 -12.65,0 -23.25,5.11 -31.87,15.33 -8.57,10.22 -13.33,23.9 -14.26,41.06zm244.82 116.92l0 -270.94 162.07 0 0 31.79 -132.29 0 0 83.25 123.83 0 0 31.79 -123.83 0 0 92.33 137.62 0 0 31.78 -167.4 0zm204.39 0l0 -270.94 27.59 0 0 270.94 -27.59 0zm181.24 -63.57l28.53 4.54c-4.44,20 -12.75,35.57 -24.87,46.61 -12.12,11.04 -27.59,16.59 -46.45,16.59 -23.72,0 -42.53,-8.83 -56.43,-26.49 -13.89,-17.6 -20.84,-42.39 -20.84,-74.23 0,-32.92 7,-58.53 21.05,-76.69 14.06,-18.23 32.29,-27.31 54.71,-27.31 21.68,0 39.39,8.89 53.13,26.74 13.74,17.85 20.64,42.95 20.64,75.3 0,1.96 -0.05,4.92 -0.16,8.83l-121.16 0c1.05,21.51 6.06,38.03 15.15,49.45 9.04,11.41 20.38,17.15 33.91,17.15 10.08,0 18.71,-3.22 25.81,-9.65 7.16,-6.43 12.8,-16.71 16.98,-30.84zm-90.28 -53.35l90.6 0c-1.2,-16.53 -4.71,-28.89 -10.4,-37.15 -8.73,-12.81 -20.12,-19.24 -34.07,-19.24 -12.64,0 -23.25,5.11 -31.87,15.33 -8.56,10.22 -13.32,23.9 -14.26,41.06zm259.93 45.03l26.96 4.54c-2.98,22.39 -10.51,39.86 -22.68,52.53 -12.17,12.68 -27.17,18.99 -44.88,18.99 -22.2,0 -40.07,-8.77 -53.55,-26.3 -13.53,-17.54 -20.27,-42.64 -20.27,-75.31 0,-21.19 2.92,-39.67 8.72,-55.56 5.8,-15.83 14.63,-27.75 26.54,-35.63 11.86,-7.95 24.77,-11.92 38.77,-11.92 17.61,0 32.08,5.36 43.26,16.14 11.23,10.79 18.44,26.11 21.58,45.92l-26.65 4.92c-2.56,-13.18 -7.05,-23.09 -13.58,-29.77 -6.48,-6.62 -14.32,-9.97 -23.51,-9.97 -13.9,0 -25.19,6 -33.91,17.98 -8.67,12.04 -13.01,30.96 -13.01,56.95 0,26.36 4.18,45.47 12.54,57.39 8.41,11.92 19.33,17.91 32.76,17.91 10.87,0 19.9,-3.97 27.11,-11.98 7.27,-7.95 11.86,-20.25 13.8,-36.83zm110.34 42.19l3.76 29.39c-7.73,1.95 -14.68,2.96 -20.74,2.96 -9.98,0 -17.71,-1.89 -23.25,-5.74 -5.48,-3.84 -9.35,-8.83 -11.6,-15.07 -2.24,-6.24 -3.34,-19.36 -3.34,-39.35l0 -113.15 -20.38 0 0 -25.73 20.38 0 0 -48.56 27.58 -19.99 0 68.55 27.59 0 0 25.73 -27.59 0 0 115.04c0,9.52 0.48,15.64 1.47,18.35 0.94,2.71 2.51,4.86 4.7,6.5 2.2,1.57 5.33,2.39 9.4,2.39 3.03,0 7.06,-0.44 12.02,-1.32zm26.91 29.7l0 -196.39 24.76 0 0 30.08c6.33,-13.93 12.18,-23.14 17.56,-27.56 5.38,-4.48 11.28,-6.68 17.71,-6.68 9.3,0 18.75,3.53 28.37,10.53l-9.82 30.71c-6.69,-4.54 -13.38,-6.81 -20.06,-6.81 -6.01,0 -11.39,2.21 -16.15,6.56 -4.75,4.35 -8.15,10.41 -10.19,18.17 -3.08,11.79 -4.59,24.72 -4.59,38.78l0 102.61 -27.59 0zm104.7 -233.09l0 -37.85 27.59 0 0 37.85 -27.59 0zm0 233.09l0 -196.39 27.59 0 0 196.39 -27.59 0zm175.91 -71.89l26.96 4.54c-2.97,22.39 -10.5,39.86 -22.67,52.53 -12.17,12.68 -27.17,18.99 -44.88,18.99 -22.2,0 -40.07,-8.77 -53.55,-26.3 -13.54,-17.54 -20.28,-42.64 -20.28,-75.31 0,-21.19 2.93,-39.67 8.73,-55.56 5.8,-15.83 14.63,-27.75 26.54,-35.63 11.86,-7.95 24.76,-11.92 38.77,-11.92 17.61,0 32.08,5.36 43.26,16.14 11.23,10.79 18.44,26.11 21.58,45.92l-26.65 4.92c-2.56,-13.18 -7.05,-23.09 -13.58,-29.77 -6.48,-6.62 -14.32,-9.97 -23.51,-9.97 -13.9,0 -25.19,6 -33.91,17.98 -8.67,12.04 -13.01,30.96 -13.01,56.95 0,26.36 4.18,45.47 12.54,57.39 8.41,11.92 19.33,17.91 32.76,17.91 10.86,0 19.9,-3.97 27.11,-11.98 7.26,-7.95 11.86,-20.25 13.79,-36.83zm50.47 -161.2l0 -37.85 27.59 0 0 37.85 -27.59 0zm0 233.09l0 -196.39 27.59 0 0 196.39 -27.59 0zm129.52 -29.7l3.76 29.39c-7.73,1.95 -14.68,2.96 -20.74,2.96 -9.97,0 -17.71,-1.89 -23.25,-5.74 -5.48,-3.84 -9.35,-8.83 -11.6,-15.07 -2.24,-6.24 -3.34,-19.36 -3.34,-39.35l0 -113.15 -20.37 0 0 -25.73 20.37 0 0 -48.56 27.59 -19.99 0 68.55 27.58 0 0 25.73 -27.58 0 0 115.04c0,9.52 0.47,15.64 1.46,18.35 0.94,2.71 2.51,4.86 4.7,6.5 2.2,1.57 5.33,2.39 9.41,2.39 3.03,0 7.05,-0.44 12.01,-1.32zm25.97 105.2l-3.13 -30.78c6.06,1.95 11.28,2.96 15.77,2.96 6.17,0 11.08,-1.26 14.74,-3.72 3.71,-2.46 6.74,-5.93 9.09,-10.34 1.72,-3.34 4.55,-11.61 8.41,-24.85 0.52,-1.83 1.3,-4.54 2.46,-8.14l-61.76 -197.02 29.47 0 33.96 113.4c4.44,14.31 8.36,29.45 11.86,45.34 3.18,-14.94 6.95,-29.7 11.34,-44.21l34.69 -114.53 27.53 0 -61.49 199.8c-6.64,21.5 -11.81,36.26 -15.52,44.4 -4.91,10.91 -10.55,18.92 -16.87,24.03 -6.38,5.11 -13.96,7.63 -22.73,7.63 -5.33,0 -11.29,-1.32 -17.82,-3.97zm248.54 -75.5l0 -270.94 77.32 0c17.45,0 30.78,1.27 39.97,3.85 12.85,3.6 23.83,10.09 32.92,19.43 11.86,12.1 20.69,27.49 26.54,46.29 5.9,18.79 8.83,40.3 8.83,64.45 0,20.56 -1.99,38.79 -5.96,54.68 -3.97,15.9 -9.09,29.08 -15.31,39.48 -6.27,10.41 -13.06,18.61 -20.48,24.54 -7.37,5.99 -16.3,10.53 -26.75,13.62 -10.5,3.09 -22.52,4.6 -36.1,4.6l-80.98 0zm29.78 -31.78l47.86 0c14.78,0 26.38,-1.64 34.79,-4.99 8.41,-3.34 15.1,-8.01 20.12,-14.06 7,-8.51 12.48,-19.99 16.4,-34.37 3.92,-14.38 5.91,-31.79 5.91,-52.28 0,-28.39 -3.87,-50.21 -11.55,-65.47 -7.68,-15.26 -17.03,-25.48 -28.06,-30.65 -7.94,-3.72 -20.74,-5.55 -38.4,-5.55l-47.07 0 0 207.37zm193.15 -201.31l0 -37.85 27.59 0 0 37.85 -27.59 0zm0 233.09l0 -196.39 27.59 0 0 196.39 -27.59 0zm58.67 -58.65l27.28 -5.3c1.51,13.18 5.8,23.28 12.8,30.34 7,7 16.82,10.53 29.36,10.53 12.7,0 22.1,-3.09 28.27,-9.33 6.11,-6.18 9.19,-13.5 9.19,-21.89 0,-7.5 -2.77,-13.43 -8.25,-17.72 -3.87,-2.97 -13.27,-6.69 -28.22,-11.29 -20.16,-6.12 -34.11,-11.41 -41.95,-15.89 -7.78,-4.54 -13.69,-10.72 -17.71,-18.67 -4.03,-7.88 -6.06,-16.65 -6.06,-26.24 0,-8.76 1.67,-16.84 4.96,-24.28 3.34,-7.44 7.84,-13.62 13.53,-18.54 4.29,-3.78 10.14,-7 17.51,-9.65 7.41,-2.65 15.3,-3.97 23.77,-3.97 12.74,0 23.93,2.2 33.54,6.68 9.67,4.42 16.77,10.47 21.37,18.04 4.54,7.63 7.73,17.79 9.45,30.52l-26.95 4.55c-1.21,-10.22 -4.76,-18.23 -10.61,-23.97 -5.85,-5.74 -14.11,-8.58 -24.82,-8.58 -12.59,0 -21.63,2.53 -27.01,7.57 -5.38,5.05 -8.1,10.98 -8.1,17.72 0,4.29 1.1,8.2 3.35,11.67 2.24,3.53 5.74,6.5 10.55,8.83 2.77,1.26 10.82,4.1 24.3,8.51 19.43,6.25 33.02,11.42 40.75,15.39 7.73,3.98 13.79,9.84 18.18,17.41 4.44,7.63 6.63,17.09 6.63,28.44 0,11.04 -2.66,21.45 -8.04,31.22 -5.38,9.78 -13.12,17.35 -23.2,22.71 -10.14,5.36 -21.58,8.01 -34.32,8.01 -21.11,0 -37.26,-5.3 -48.33,-15.83 -11.08,-10.6 -18.13,-26.24 -21.22,-46.99zm227.59 28.95l3.76 29.39c-7.73,1.95 -14.68,2.96 -20.74,2.96 -9.98,0 -17.71,-1.89 -23.25,-5.74 -5.48,-3.84 -9.35,-8.83 -11.6,-15.07 -2.24,-6.24 -3.34,-19.36 -3.34,-39.35l0 -113.15 -20.38 0 0 -25.73 20.38 0 0 -48.56 27.59 -19.99 0 68.55 27.58 0 0 25.73 -27.58 0 0 115.04c0,9.52 0.46,15.64 1.46,18.35 0.94,2.71 2.5,4.86 4.7,6.5 2.2,1.57 5.33,2.39 9.4,2.39 3.04,0 7.06,-0.44 12.02,-1.32zm26.91 29.7l0 -196.39 24.76 0 0 30.08c6.33,-13.93 12.18,-23.14 17.56,-27.56 5.38,-4.48 11.28,-6.68 17.71,-6.68 9.3,0 18.76,3.53 28.37,10.53l-9.82 30.71c-6.69,-4.54 -13.38,-6.81 -20.06,-6.81 -6.01,0 -11.4,2.21 -16.15,6.56 -4.75,4.35 -8.15,10.41 -10.19,18.17 -3.08,11.79 -4.59,24.72 -4.59,38.78l0 102.61 -27.59 0zm104.7 -233.09l0 -37.85 27.59 0 0 37.85 -27.59 0zm0 233.09l0 -196.39 27.59 0 0 196.39 -27.59 0zm95.04 0l-25.71 0 0 -270.94 27.59 0 0 96.69c11.65,-17.54 26.49,-26.3 44.56,-26.3 9.98,0 19.49,2.39 28.43,7.25 8.93,4.86 16.25,11.73 22.05,20.5 5.74,8.83 10.29,19.42 13.53,31.85 3.29,12.36 4.91,25.67 4.91,39.79 0,33.55 -6.9,59.54 -20.64,77.83 -13.79,18.35 -30.3,27.5 -49.58,27.5 -19.18,0 -34.22,-9.65 -45.14,-28.89l0 24.72zm-0.32 -99.64c0,23.46 2.67,40.42 7.94,50.89 8.68,17.09 20.38,25.67 35.17,25.67 12.07,0 22.46,-6.31 31.19,-18.92 8.78,-12.61 13.16,-31.41 13.16,-56.38 0,-25.61 -4.18,-44.46 -12.59,-56.64 -8.41,-12.17 -18.59,-18.29 -30.51,-18.29 -12.07,0 -22.46,6.31 -31.19,18.92 -8.78,12.62 -13.17,30.84 -13.17,54.75zm255.54 99.64l0 -29.2c-12.64,22.27 -29.78,33.37 -51.46,33.37 -9.56,0 -18.5,-2.21 -26.8,-6.63 -8.31,-4.47 -14.48,-10.02 -18.5,-16.71 -4.02,-6.75 -6.84,-14.95 -8.46,-24.66 -1.1,-6.56 -1.67,-16.9 -1.67,-31.03l0 -121.53 27.58 0 0 108.67c0,17.34 0.58,29.07 1.67,35.06 1.73,8.77 5.38,15.58 11.03,20.56 5.59,4.98 12.48,7.51 20.74,7.51 8.25,0 15.99,-2.53 23.2,-7.63 7.21,-5.11 12.33,-12.11 15.36,-20.88 2.97,-8.76 4.49,-21.57 4.49,-38.28l0 -105.01 27.59 0 0 196.39 -24.77 0zm127.95 -29.7l3.77 29.39c-7.74,1.95 -14.69,2.96 -20.75,2.96 -9.97,0 -17.71,-1.89 -23.25,-5.74 -5.48,-3.84 -9.35,-8.83 -11.59,-15.07 -2.25,-6.24 -3.35,-19.36 -3.35,-39.35l0 -113.15 -20.38 0 0 -25.73 20.38 0 0 -48.56 27.59 -19.99 0 68.55 27.58 0 0 25.73 -27.58 0 0 115.04c0,9.52 0.47,15.64 1.46,18.35 0.94,2.71 2.51,4.86 4.7,6.5 2.2,1.57 5.33,2.39 9.41,2.39 3.03,0 7.05,-0.44 12.01,-1.32zm27.22 -203.39l0 -37.85 27.59 0 0 37.85 -27.59 0zm0 233.09l0 -196.39 27.59 0 0 196.39 -27.59 0z"/>
    <path class="fil1" d="M5447.97 2849.62c0,-36.27 8.36,-63.13 25.13,-80.6 13.95,-14.51 31.04,-21.76 51.15,-21.76 22.32,0 40.6,8.83 54.81,26.49 14.16,17.59 21.27,42 21.27,73.09 0,25.23 -3.14,45.03 -9.41,59.47 -6.27,14.45 -15.41,25.67 -27.43,33.68 -11.96,8.01 -25.08,11.99 -39.24,11.99 -22.78,0 -41.17,-8.77 -55.22,-26.37 -14.05,-17.59 -21.06,-42.94 -21.06,-75.99zm28.22 0.06c0,25.1 4.54,43.9 13.63,56.32 9.15,12.49 20.59,18.73 34.43,18.73 13.69,0 25.08,-6.24 34.23,-18.79 9.09,-12.55 13.63,-31.66 13.63,-57.33 0,-24.22 -4.6,-42.57 -13.74,-55 -9.14,-12.48 -20.53,-18.73 -34.12,-18.73 -13.84,0 -25.28,6.18 -34.43,18.61 -9.09,12.42 -13.63,31.15 -13.63,56.19zm156.48 98.13l0 -196.39 24.76 0 0 27.88c11.91,-21.38 29.16,-32.04 51.67,-32.04 9.82,0 18.81,2.14 27.01,6.37 8.21,4.22 14.37,9.84 18.45,16.71 4.07,6.88 6.95,15.08 8.57,24.53 0.99,6.19 1.51,16.97 1.51,32.36l0 120.58 -27.58 0 0 -119.32c0,-13.56 -1.05,-23.71 -3.19,-30.4 -2.14,-6.68 -5.96,-12.04 -11.39,-16.08 -5.44,-3.97 -11.86,-5.99 -19.18,-5.99 -11.7,0 -21.78,4.48 -30.3,13.49 -8.52,8.96 -12.75,26.05 -12.75,51.15l0 107.15 -27.58 0zm424.76 -95.04l29.78 9.08c-6.22,29.46 -17.4,51.84 -33.54,67.3 -16.15,15.45 -35.89,23.2 -59.25,23.2 -24.14,0 -43.78,-5.92 -58.93,-17.84 -15.15,-11.86 -26.65,-29.08 -34.54,-51.59 -7.89,-22.58 -11.86,-46.74 -11.86,-72.59 0,-28.19 4.44,-52.79 13.38,-73.79 8.93,-21.01 21.63,-36.96 38.09,-47.87 16.45,-10.91 34.58,-16.34 54.33,-16.34 22.47,0 41.33,6.88 56.59,20.69 15.3,13.81 25.96,33.17 31.97,58.15l-29.15 8.32c-5.18,-19.67 -12.75,-34.05 -22.63,-43.01 -9.87,-9.02 -22.31,-13.5 -37.3,-13.5 -17.19,0 -31.61,4.99 -43.15,14.95 -11.55,9.97 -19.7,23.4 -24.35,40.18 -4.7,16.83 -7.05,34.18 -7.05,52.03 0,23.02 2.76,43.13 8.3,60.29 5.54,17.22 14.16,30.02 25.86,38.53 11.71,8.52 24.35,12.74 37.99,12.74 16.61,0 30.61,-5.8 42.11,-17.34 11.49,-11.61 19.28,-28.76 23.35,-51.59zm52.72 -3.15c0,-36.27 8.36,-63.13 25.13,-80.6 13.95,-14.51 31.03,-21.76 51.15,-21.76 22.31,0 40.59,8.83 54.8,26.49 14.16,17.59 21.27,42 21.27,73.09 0,25.23 -3.14,45.03 -9.41,59.47 -6.27,14.45 -15.41,25.67 -27.43,33.68 -11.96,8.01 -25.07,11.99 -39.23,11.99 -22.78,0 -41.17,-8.77 -55.23,-26.37 -14.05,-17.59 -21.05,-42.94 -21.05,-75.99zm28.21 0.06c0,25.1 4.55,43.9 13.64,56.32 9.14,12.49 20.58,18.73 34.43,18.73 13.69,0 25.07,-6.24 34.22,-18.79 9.09,-12.55 13.64,-31.66 13.64,-57.33 0,-24.22 -4.6,-42.57 -13.75,-55 -9.14,-12.48 -20.53,-18.73 -34.11,-18.73 -13.85,0 -25.29,6.18 -34.43,18.61 -9.09,12.42 -13.64,31.15 -13.64,56.19zm164.32 98.13l0 -37.84 31.34 0 0 37.84 -31.34 0zm168.54 0l0 -270.94 29.78 0 0 239.16 110.35 0 0 31.78 -140.13 0zm232.03 -29.7l3.76 29.39c-7.73,1.95 -14.68,2.96 -20.74,2.96 -9.98,0 -17.71,-1.89 -23.25,-5.74 -5.48,-3.84 -9.35,-8.83 -11.6,-15.07 -2.24,-6.24 -3.34,-19.36 -3.34,-39.35l0 -113.15 -20.38 0 0 -25.73 20.38 0 0 -48.56 27.59 -19.99 0 68.55 27.58 0 0 25.73 -27.58 0 0 115.04c0,9.52 0.47,15.64 1.46,18.35 0.94,2.71 2.5,4.86 4.7,6.5 2.2,1.57 5.33,2.39 9.4,2.39 3.04,0 7.06,-0.44 12.02,-1.32zm132.24 29.7l0 -24.91c-10.29,19.36 -25.45,29.08 -45.46,29.08 -12.95,0 -24.86,-4.29 -35.68,-12.93 -10.87,-8.58 -19.28,-20.63 -25.29,-36.02 -5.96,-15.45 -8.93,-33.17 -8.93,-53.22 0,-19.55 2.72,-37.28 8.1,-53.23 5.43,-15.9 13.53,-28.13 24.34,-36.58 10.76,-8.52 22.89,-12.74 36.21,-12.74 9.82,0 18.55,2.52 26.18,7.5 7.62,4.98 13.84,11.54 18.65,19.55l0 -97.44 27.58 0 0 270.94 -25.7 0zm-87.15 -97.94c0,25.1 4.39,43.83 13.22,56.26 8.77,12.42 19.17,18.6 31.14,18.6 12.07,0 22.31,-5.93 30.77,-17.78 8.41,-11.86 12.64,-29.96 12.64,-54.31 0,-26.74 -4.28,-46.41 -12.9,-58.96 -8.57,-12.55 -19.17,-18.8 -31.77,-18.8 -12.27,0 -22.51,5.99 -30.77,18.04 -8.2,12.05 -12.33,31.03 -12.33,56.95zm164.32 97.94l0 -37.84 31.35 0 0 37.84 -31.35 0z"/>
   </g>
   <polygon class="fil3" points="3540.85,88.46 2441.41,819.49 2700.06,871.88 2180.87,1386.19 2706.46,1386.19 3213.24,855.15 2937.95,780.47 "/>
   <polygon class="fil3" points="3540.85,88.46 4640.28,819.49 4381.63,871.88 4900.82,1386.19 4375.24,1386.19 3868.45,855.15 4143.75,780.47 "/>
  </g>
 </g>
</svg>
