<?xml version="1.0" encoding="utf-8"?>
<!-- Generator: Adobe Illustrator 19.2.1, SVG Export Plug-In . SVG Version: 6.00 Build 0)  -->
<svg version="1.1" id="layer" xmlns="http://www.w3.org/2000/svg" xmlns:xlink="http://www.w3.org/1999/xlink" x="0px" y="0px"
	 viewBox="0 0 652 652" style="enable-background:new 0 0 652 652;" xml:space="preserve">
<style type="text/css">
	.st0{fill:#3D85C6;}
</style>
<g>
	<path class="st0" d="M61.7,209.7l-4.1,66.1L97,209.7h34.2l-71.8,115H20.6l7.6-115H61.7z M494.1,324.5l0.3-115.1h-32.4l-83.5,115.1
		h34l50.9-75.6l-2.8,75.6H494.1z M265.2,209.7l-40,115h83.5l10-29.7H272l29.1-85.3H265.2z M335.2,209.7l-9.7,29.5H357l-30.7,85.5
		h35.3l30-85.5h30l11.2-29.5H335.2z M115.6,300.3c1.9,7.2,6.2,13.3,12.7,18.1c6.6,4.9,15.2,7.4,26,7.4c12.4,0.1,24.1-2.9,34.9-8.9
		c10.7-6.1,19.8-14.7,27.4-26c7.5-11.2,12.2-23,14-35.1c2.2-14.6-0.4-26.2-7.8-35.1c-7.5-8.9-18.3-13.3-32.7-13.4
		c-10.7-0.1-20.5,2-29.6,6.3c-9,4.2-16.9,10-23.4,17.4c-6.7,7.3-12.2,16-16.4,26.2c-3.3,7.4-5.3,14.6-6.4,21.4
		C113.2,285.9,113.7,293.2,115.6,300.3 M160.1,248c6.3-8.3,13.6-12.4,21.9-12.3c5.4,0,9.5,2.1,12.4,6c2.9,4.1,3.8,9.5,2.9,16.4
		c-0.9,6.3-3.2,12.7-6.8,19.3c-3.8,6.5-7.9,11.4-12.5,14.6c-4.7,3.2-9.3,4.8-13.8,4.8c-5.7,0-9.8-2.2-12.7-6.2
		c-2.9-4.1-3.9-9.3-3.1-15.3C149.9,265.3,153.7,256.3,160.1,248 M542.2,273.3c0,0,19.9,6.9,24.2,8.7c4.4,1.8,9,7.5,5.3,13
		c-4.5,6.5-17.6,10.8-25.5,4.7c0,0-4.3-2.9-4.3-14.1h-32.6c0,0-4.2,39.4,36.9,40.5c41.2,1.1,59.6-26.7,61-39.4
		c1.4-13.4-5-29.3-31.7-33.9c0,0-20.5-2.6-12.7-17.4c11-12.6,25.5-0.8,24.1,7.6h31.9c0,0,7.5-37.1-41.6-36.5
		C528,207,526.8,245,526.8,245S526.3,267.8,542.2,273.3"/>
	<path class="st0" d="M220,390.3h-13.5v34.5h-19.6v-34.5h-13.7V376H220V390.3z M138.3,376l-18.4,48.7h18.8l9.9-29.1l9.9,29.1h19
		L158.7,376H138.3z M124.9,376H77.7v14.3h14.1v34.5h19.4v-34.5h13.7V376z M233.7,376l-18.4,48.7h18.8l9.9-29.1l9.9,29.1h19.2
		l-19-48.7H233.7z M46.1,376l15.4,48.7h-9.3L47.9,411h-15l-4.1,13.8h-8.9L35.1,376H46.1z M46.5,404.3l-3.7-12
		c-0.9-3-1.7-6.3-2.4-9.1h-0.1c-0.7,2.8-1.4,6.2-2.3,9.1l-3.7,12H46.5z M307.3,402.9h18v-6.6h-18v-13h19.1v-6.7h-26.7v48.1h27.8V418
		h-20.1V402.9z M362.8,392c-1.2-1.1-2.6-1.9-4.1-2.4c-3.2-0.9-5.8-0.8-8.1-0.1c-1.2,0.4-2.3,0.9-3.3,1.5c-1,0.6-1.8,1.3-2.6,2.1
		l-0.5,0.6l-0.2-4h-7l0.1,0.9c0.1,1.3,0.2,2.7,0.2,4.2c0,1.3,0.1,2.8,0.1,4.8v25.1h7.7v-20.9c0-1,0.1-1.9,0.4-2.6
		c0.5-1.5,1.4-2.9,2.7-4c1.3-1.1,2.9-1.6,4.7-1.6c1.3,0,2.4,0.2,3.2,0.7c0.9,0.5,1.6,1.1,2.1,1.9c0.5,0.8,0.9,1.8,1.2,2.9
		c0.3,1.2,0.4,2.4,0.4,3.6v20h7.7V404c0-2.9-0.4-5.4-1.3-7.4C365.1,394.7,364,393.1,362.8,392 M388.2,381.4l-7.6,2.4v5.9h-5.2v6.3
		h5.2v17.3c0,2.1,0.2,3.8,0.5,5.3c0.4,1.6,1.1,2.9,2,3.9c1.7,1.9,4.1,2.9,7.2,2.9c1.3,0,2.4-0.1,3.3-0.3c0.8-0.2,1.7-0.4,2.4-0.7
		l0.5-0.2l-0.4-6.2l-1,0.3l-1.3,0.3c-0.4,0-1.1,0.1-1.9,0.1c-1.4,0-2.3-0.4-2.8-1.3c-0.6-1-0.9-2.4-0.9-4.4V396h8.7v-6.3h-8.7V381.4
		z M433.9,400.3c0.4,1.9,0.6,3.6,0.6,5.2c0,0.7,0,1.2-0.1,1.7l-0.1,1.2l-0.1,0.7H411c0.1,1.6,0.4,2.9,0.9,4.1
		c0.6,1.4,1.3,2.4,2.3,3.3c0.9,0.8,2,1.5,3.3,1.9c1.3,0.4,2.7,0.6,4.1,0.6c2.1,0,3.9-0.2,5.2-0.5c1.3-0.3,2.5-0.7,3.7-1.2l0.9-0.4
		l1.4,6l-0.6,0.3c-1.1,0.5-2.5,1-4.5,1.5c-1.9,0.5-4.2,0.7-7,0.7c-2.7,0-5.1-0.4-7.2-1.3c-2.1-0.8-4-2.1-5.5-3.6
		c-1.5-1.6-2.7-3.5-3.4-5.6c-0.8-2.1-1.1-4.5-1.1-7.2c0-2.6,0.4-5.1,1.1-7.3c0.8-2.3,1.9-4.3,3.3-6c1.4-1.7,3.2-3,5.2-4
		c2.1-1,4.3-1.5,6.9-1.5c2.9,0,5.3,0.6,7.2,1.7c1.9,1.1,3.4,2.5,4.5,4.2C432.8,396.6,433.5,398.3,433.9,400.3 M427.1,403.1
		c0-0.7-0.2-1.4-0.3-2.2c-0.2-1-0.6-2-1.2-2.9c-0.5-0.9-1.3-1.6-2.3-2.2c-1-0.6-2.2-0.9-3.8-0.9c-1.4,0-2.6,0.3-3.5,0.9
		c-1,0.6-1.9,1.3-2.6,2.2c-0.7,0.9-1.2,1.9-1.6,2.9c-0.3,0.7-0.5,1.5-0.6,2.2H427.1z M459.9,389c-2.3,0-4.3,0.7-6.1,2.1
		c-1.1,0.8-1.9,1.9-2.7,3.1l-0.1-4.4h-7l0.1,0.9c0.1,1.5,0.2,3.2,0.2,4.9c0,1.7,0.1,3.5,0.1,5.5v23.8h7.7v-18.6l0.1-1.4l0.2-1.3
		c0.4-2.1,1.2-3.9,2.5-5.2c1.3-1.3,2.9-1.9,4.8-1.9c0.7,0,1.3,0.1,1.9,0.2l1,0.2v-7.4l-0.6-0.2L459.9,389z M502.8,399.5
		c0.8,2.2,1.1,4.6,1.1,7.2c0,3.1-0.5,5.8-1.3,8.2c-0.9,2.4-2.1,4.3-3.5,5.9c-1.5,1.6-3.2,2.8-5.1,3.5c-1.9,0.8-3.9,1.2-6,1.2
		c-2.3,0-4.5-0.5-6.4-1.5c-1.2-0.6-2.3-1.4-3.2-2.3v16.7h-7.6v-36.9c0-1.9,0-3.8-0.1-5.8c0-1.9-0.1-3.5-0.2-5l0-0.9h7.1l0.2,4.3
		c1.1-1.3,2.3-2.4,3.8-3.2c2.1-1.2,4.6-1.8,7.5-1.8c2.1,0,4.1,0.4,6,1.3c1.8,0.9,3.4,2.1,4.7,3.7C501,395.5,502,397.4,502.8,399.5
		 M496.2,407c0-1.6-0.2-3.1-0.6-4.5c-0.4-1.4-1-2.6-1.8-3.7c-0.8-1-1.7-1.8-2.8-2.4c-1.1-0.6-2.4-0.9-3.9-0.9
		c-1.9,0-3.6,0.6-5.2,1.9c-1.6,1.2-2.6,2.9-3.2,5l0,0.2l-0.2,1l-0.1,1.1v5.7l0.1,1.2l0.2,1c0.5,2,1.5,3.5,3,4.7
		c1.5,1.2,3.3,1.8,5.3,1.8c1.5,0,2.8-0.3,3.9-0.8c1.2-0.6,2.1-1.4,2.9-2.4c0.8-1.1,1.4-2.3,1.8-3.8C496,410.5,496.2,408.8,496.2,407
		 M529.3,389c-2.2,0-4.3,0.7-6.1,2.1c-1,0.8-1.9,1.9-2.7,3l-0.1-4.4h-7l0,0.9c0.1,1.8,0.2,3.4,0.2,4.9c0,1.5,0.1,3.2,0.1,5.5v23.8
		h7.7v-18.6l0.1-1.4l0.2-1.3c0.4-2.2,1.2-3.8,2.5-5.2c1.3-1.3,2.9-1.9,4.8-1.9l1.9,0.2l1,0.2v-7.4l-0.6-0.2
		C530.6,389,530,389,529.3,389 M544,375.8c-1.4,0-2.5,0.5-3.4,1.4c-0.9,0.9-1.3,2-1.3,3.3c0,1.3,0.4,2.4,1.3,3.3
		c0.9,1,2,1.4,3.4,1.4c1.5,0,2.6-0.5,3.5-1.4c0.8-0.9,1.2-2,1.2-3.3c0-1.3-0.4-2.4-1.2-3.3C546.6,376.3,545.4,375.8,544,375.8
		 M540.1,424.7h7.7v-35h-7.7V424.7z M572,403.7L572,403.7c-2.1-0.8-3.7-1.6-4.6-2.3c-0.8-0.6-1.2-1.5-1.2-2.6c0-1,0.4-1.8,1.2-2.6
		c0.8-0.8,2-1.1,3.6-1.1c1.5,0,2.7,0.2,3.8,0.6c1.2,0.4,2,0.8,2.6,1.2l0.9,0.6l2.1-6.1l-0.6-0.3c-1-0.6-2.3-1.1-3.7-1.5
		c-1.5-0.4-3.1-0.6-4.9-0.6c-1.9,0-3.6,0.3-5.1,0.8c-1.5,0.5-2.8,1.3-3.9,2.3c-1.1,1-1.9,2.1-2.5,3.4c-0.6,1.3-0.9,2.7-0.9,4.1
		c0,2.2,0.8,4.2,2.4,6c1.5,1.7,3.9,3.1,7,4.2c2.1,0.8,3.6,1.6,4.5,2.4c0.8,0.7,1.2,1.7,1.2,2.9c0,1.1-0.5,2.1-1.3,2.9
		c-0.9,0.8-2.4,1.2-4.3,1.2c-1.4,0-2.8-0.2-4.2-0.7c-1.4-0.5-2.5-1-3.4-1.6l-0.9-0.6l-2.1,6.3l0.6,0.3c1.3,0.7,2.7,1.3,4.4,1.8
		c1.7,0.5,3.5,0.7,5.4,0.7c4.2,0,7.5-1,9.8-3c2.3-2,3.5-4.7,3.5-7.9c0-2.7-0.8-4.9-2.4-6.6C577.3,406.3,575,404.9,572,403.7
		 M619.9,405.5c0,0.7,0,1.3-0.1,1.7l-0.1,0.4l-0.1,0.8l-0.1,0.7h-23.3c0.1,1.6,0.4,3,0.9,4.1c0.6,1.3,1.3,2.4,2.3,3.3
		c0.9,0.8,2,1.5,3.3,1.9c1.3,0.4,2.6,0.6,4.1,0.6c2.2,0,3.9-0.2,5.2-0.5c1.3-0.3,2.5-0.7,3.7-1.2l0.9-0.4l1.4,6l-0.6,0.3
		c-1.1,0.5-2.6,1-4.5,1.5c-1.9,0.5-4.2,0.7-7,0.7c-2.7,0-5.1-0.4-7.2-1.3c-2.1-0.8-4-2.1-5.5-3.6c-1.5-1.6-2.6-3.4-3.4-5.6
		c-0.8-2.2-1.1-4.6-1.1-7.2c0-2.6,0.4-5.1,1.1-7.3c0.8-2.3,1.9-4.3,3.3-6c1.4-1.7,3.2-3,5.2-4c2-1,4.3-1.5,6.9-1.5
		c2.9,0,5.3,0.6,7.2,1.7c1.9,1.1,3.4,2.6,4.5,4.2c1.1,1.8,1.9,3.5,2.3,5.4C619.7,402.2,619.9,403.9,619.9,405.5 M612.3,403.1
		c0-0.7-0.1-1.4-0.3-2.2c-0.2-1-0.6-2-1.2-2.9c-0.5-0.9-1.3-1.6-2.3-2.2c-1-0.6-2.2-0.9-3.8-0.9c-1.4,0-2.6,0.3-3.5,0.9
		c-1,0.6-1.9,1.3-2.6,2.2c-0.7,0.9-1.2,1.9-1.6,2.9c-0.3,0.8-0.5,1.5-0.6,2.2H612.3z"/>
</g>
</svg>
